<?xml version="1.0" encoding="UTF-8" standalone="no"?>
<!-- Created with Inkscape (http://www.inkscape.org/) -->

<svg
   width="150mm"
   height="100mm"
   viewBox="0 0 150 100"
   version="1.1"
   id="svg5"
   inkscape:version="1.1.2 (0a00cf5339, 2022-02-04)"
   sodipodi:docname="reach_def.svg"
   xmlns:inkscape="http://www.inkscape.org/namespaces/inkscape"
   xmlns:sodipodi="http://sodipodi.sourceforge.net/DTD/sodipodi-0.dtd"
   xmlns="http://www.w3.org/2000/svg"
   xmlns:svg="http://www.w3.org/2000/svg">
  <sodipodi:namedview
     id="namedview7"
     pagecolor="#ffffff"
     bordercolor="#666666"
     borderopacity="1.0"
     inkscape:pageshadow="2"
     inkscape:pageopacity="0.0"
     inkscape:pagecheckerboard="0"
     inkscape:document-units="mm"
     showgrid="false"
     inkscape:zoom="0.74742565"
     inkscape:cx="226.10945"
     inkscape:cy="349.19861"
     inkscape:window-width="1920"
     inkscape:window-height="1011"
     inkscape:window-x="0"
     inkscape:window-y="32"
     inkscape:window-maximized="1"
     inkscape:current-layer="layer1" />
  <defs
     id="defs2" />
  <g
     inkscape:label="Livello 1"
     inkscape:groupmode="layer"
     id="layer1">
    <ellipse
       style="fill:#ffd42a;fill-opacity:0.5;fill-rule:evenodd;stroke-width:0.216847"
       id="path33"
       cx="50.140743"
       cy="43.89465"
       rx="29.251787"
       ry="25.348742" />
    <ellipse
       style="fill:#ff3232;fill-opacity:0.5;fill-rule:evenodd;stroke-width:0.264583"
       id="path33-1"
       cx="91.631935"
       cy="57.68716"
       rx="43.548069"
       ry="25.348742" />
    <ellipse
       style="fill:#00ac00;fill-opacity:0.5;fill-rule:evenodd;stroke-width:0.182126"
       id="path33-1-1"
       cx="83.567986"
       cy="27.851582"
       rx="25.402651"
       ry="20.590429" />
    <path
       id="path33-1-2"
       style="fill:#003fff;fill-opacity:0.5;fill-rule:evenodd;stroke-width:0.264583"
       d="m 91.585515,32.383952 a 43.548069,25.348741 0 0 0 -14.58567,1.474327 29.251788,25.348741 0 0 1 2.39262,10.036599 29.251788,25.348741 0 0 1 -0.43047,4.254002 25.402651,20.590429 0 0 0 4.55942,0.338481 25.402651,20.590429 0 0 0 24.174235,-14.30352 43.548069,25.348741 0 0 0 -16.110135,-1.799889 z M 78.961995,48.14888 a 25.402651,20.590429 0 0 1 -0.64234,-0.106452 25.402651,20.590429 0 0 0 0.64234,0.106452 z m -1.99781,-14.282848 a 43.548069,25.348741 0 0 0 -2.386932,0.542086 43.548069,25.348741 0 0 1 2.386932,-0.542086 z m -2.480983,0.564822 a 43.548069,25.348741 0 0 0 -1.11001,0.287321 43.548069,25.348741 0 0 1 1.11001,-0.287321 z m -1.441773,0.378272 a 43.548069,25.348741 0 0 0 -1.800405,0.523999 43.548069,25.348741 0 0 1 1.800405,-0.523999 z m -2.271694,0.66921 a 43.548069,25.348741 0 0 0 -0.886251,0.289388 43.548069,25.348741 0 0 1 0.886251,-0.289388 z m -1.519804,0.506945 a 43.548069,25.348741 0 0 0 -1.205095,0.435117 43.548069,25.348741 0 0 1 1.205095,-0.435117 z m -2.012799,0.743108 a 43.548069,25.348741 0 0 0 -0.652156,0.260967 43.548069,25.348741 0 0 1 0.652156,-0.260967 z m -1.676382,0.692465 a 43.548069,25.348741 0 0 0 -0.502295,0.220657 43.548069,25.348741 0 0 1 0.502295,-0.220657 z m -1.653645,0.754475 a 43.548069,25.348741 0 0 0 -0.42168,0.20464 43.548069,25.348741 0 0 1 0.42168,-0.20464 z m -0.941547,1.810224 a 25.402651,20.590429 0 0 0 0.238229,0.260966 25.402651,20.590429 0 0 1 -0.238229,-0.260966 z m 0.942063,0.98702 a 25.402651,20.590429 0 0 0 0.186033,0.186553 25.402651,20.590429 0 0 1 -0.186033,-0.186553 z m 1.082622,1.000974 a 25.402651,20.590429 0 0 0 0.301273,0.253215 25.402651,20.590429 0 0 1 -0.301273,-0.253215 z m 1.037661,0.843876 a 25.402651,20.590429 0 0 0 0.293005,0.226343 25.402651,20.590429 0 0 1 -0.293005,-0.226343 z m 1.28106,0.926041 a 25.402651,20.590429 0 0 0 0.365352,0.237194 25.402651,20.590429 0 0 1 -0.365352,-0.237194 z m 1.123444,0.709002 a 25.402651,20.590429 0 0 0 0.401011,0.237712 25.402651,20.590429 0 0 1 -0.401011,-0.237712 z m 1.461926,0.81752 a 25.402651,20.590429 0 0 0 0.402561,0.198437 25.402651,20.590429 0 0 1 -0.402561,-0.198437 z m 1.206646,0.580326 a 25.402651,20.590429 0 0 0 0.468188,0.208772 25.402651,20.590429 0 0 1 -0.468188,-0.208772 z m 1.409216,0.594797 a 25.402651,20.590429 0 0 0 0.637688,0.238744 25.402651,20.590429 0 0 1 -0.637688,-0.238744 z m 1.437637,0.516763 a 25.402651,20.590429 0 0 0 0.586012,0.186552 25.402651,20.590429 0 0 1 -0.586012,-0.186552 z m 1.375627,0.414962 a 25.402651,20.590429 0 0 0 0.722435,0.191204 25.402651,20.590429 0 0 1 -0.722435,-0.191204 z m 1.661915,0.411345 a 25.402651,20.590429 0 0 0 0.63355,0.128156 25.402651,20.590429 0 0 1 -0.63355,-0.128156 z" />
    <path
       style="fill:none;stroke:#fd0000;stroke-width:0.264583px;stroke-linecap:butt;stroke-linejoin:miter;stroke-opacity:1"
       d="m 90.079155,39.02115 -5.16696,5.74412 -1.79401,9.48283 -3.41572,7.69861 6.47241,3.50127 6.92617,-1.64614 6.17805,-1.81142 4.633505,-5.25022 8.68756,3.89279 2.5195,-7.29794 -5.07331,-7.19953 -9.68321,-6.46818 z"
       id="path3159" />
    <circle
       style="fill:#0000af;fill-opacity:0.996198;stroke-width:0.264583"
       id="path2610"
       cx="90.031395"
       cy="39.025311"
       r="1.6472772" />
    <circle
       style="fill:#000000;fill-opacity:0.996198;stroke-width:0.264583"
       id="path2610-7"
       cx="84.823875"
       cy="44.733112"
       r="1.6472772" />
    <circle
       style="fill:#000000;fill-opacity:0.996198;stroke-width:0.264583"
       id="path2610-7-7"
       cx="83.08802"
       cy="54.251202"
       r="1.6472772" />
    <circle
       style="fill:#000000;fill-opacity:0.996198;stroke-width:0.264583"
       id="path2610-7-7-0"
       cx="79.643555"
       cy="61.92601"
       r="1.6472772" />
    <circle
       style="fill:#000000;fill-opacity:0.996198;stroke-width:0.264583"
       id="path2610-7-7-0-9"
       cx="86.181572"
       cy="65.461273"
       r="1.6472772" />
    <circle
       style="fill:#000000;fill-opacity:0.996198;stroke-width:0.264583"
       id="path2610-7-7-0-2"
       cx="93.061111"
       cy="63.779434"
       r="1.6472772" />
    <circle
       style="fill:#000000;fill-opacity:0.996198;stroke-width:0.264583"
       id="path2610-7-7-0-0"
       cx="99.255989"
       cy="62.00946"
       r="1.6472772" />
    <circle
       style="fill:#000000;fill-opacity:0.996198;stroke-width:0.264583"
       id="path2610-7-7-0-6"
       cx="103.8579"
       cy="56.699566"
       r="1.6472772" />
    <circle
       style="fill:#000000;fill-opacity:0.996198;stroke-width:0.264583"
       id="path2610-7-7-0-1"
       cx="112.53074"
       cy="60.593487"
       r="1.6472772" />
    <circle
       style="fill:#000000;fill-opacity:0.996198;stroke-width:0.264583"
       id="path2610-7-7-0-7"
       cx="115.00867"
       cy="53.336636"
       r="1.6472772" />
    <circle
       style="fill:#000000;fill-opacity:0.996198;stroke-width:0.264583"
       id="path2610-7-7-0-8"
       cx="109.87579"
       cy="46.256771"
       r="1.6472772" />
    <circle
       style="fill:#000000;fill-opacity:0.996198;stroke-width:0.264583"
       id="path2610-7-7-0-87"
       cx="100.31797"
       cy="39.707912"
       r="1.6472772" />
    <text
       xml:space="preserve"
       style="font-style:normal;font-weight:normal;font-size:10.5833px;line-height:1.25;font-family:sans-serif;fill:#000000;fill-opacity:1;stroke:none;stroke-width:0.264583"
       x="32.911678"
       y="50.174435"
       id="text17731"><tspan
         sodipodi:role="line"
         id="tspan17729"
         style="stroke-width:0.264583"
         x="32.911678"
         y="50.174435">G</tspan></text>
    <text
       xml:space="preserve"
       style="font-style:normal;font-weight:normal;font-size:10.5833px;line-height:1.25;font-family:sans-serif;fill:#000000;fill-opacity:1;stroke:none;stroke-width:0.264583"
       x="81.515388"
       y="22.507847"
       id="text33203"><tspan
         sodipodi:role="line"
         id="tspan33201"
         style="stroke-width:0.264583"
         x="81.515388"
         y="22.507847">F</tspan></text>
    <text
       xml:space="preserve"
       style="font-style:normal;font-weight:normal;font-size:10.5833px;line-height:1.25;font-family:sans-serif;fill:#000000;fill-opacity:1;stroke:none;stroke-width:0.264583"
       x="77.318802"
       y="77.061157"
       id="text40083"><tspan
         sodipodi:role="line"
         id="tspan40081"
         style="stroke-width:0.264583"
         x="77.318802"
         y="77.061157">Reach</tspan></text>
    <text
       xml:space="preserve"
       style="font-style:normal;font-weight:normal;font-size:3.53737px;line-height:1.25;font-family:sans-serif;fill:#000000;fill-opacity:1;stroke:none;stroke-width:0.0884344"
       x="82.16127"
       y="36.726437"
       id="text51715"><tspan
         sodipodi:role="line"
         id="tspan51713"
         style="stroke-width:0.0884344"
         x="82.16127"
         y="36.726437">Recur</tspan></text>
  </g>
</svg>
